/* XPM */
static char *_ee2ac8309af4779c690f36361db154f[] = {
/* columns rows colors chars-per-pixel */
"32 32 148 2 ",
"   c #7D3637",
".  c #7D403E",
"X  c #773F40",
"o  c #6D494A",
"O  c #794746",
"+  c #764748",
"@  c #7D534F",
"#  c #6C5D5B",
"$  c #785553",
"%  c #775856",
"&  c #6C625E",
"*  c #74615E",
"=  c #766E5D",
"-  c #7A6F58",
";  c #7D755E",
":  c #666964",
">  c #6E6C67",
",  c #6C6D6C",
"<  c #746561",
"1  c #7C6562",
"2  c #716A66",
"3  c #726E69",
"4  c #6C706B",
"5  c #767267",
"6  c #7C7560",
"7  c #75746E",
"8  c #78756D",
"9  c #7C796B",
"0  c #6C6E72",
"q  c #677771",
"w  c #6D7271",
"e  c #6B7A74",
"r  c #737471",
"t  c #787771",
"y  c #727A74",
"u  c #7A7973",
"i  c #AE0006",
"p  c #831F23",
"a  c #A61E22",
"s  c #812226",
"d  c #83292C",
"f  c #8B2D2F",
"g  c #9B2024",
"h  c #9D282D",
"j  c #8C2F32",
"k  c #9B2F33",
"l  c #853033",
"z  c #893032",
"x  c #8C363A",
"c  c #9D3534",
"v  c #A12725",
"b  c #BC3A38",
"n  c #C50C12",
"m  c #C11319",
"M  c #D31919",
"N  c #ED1413",
"B  c #D13030",
"V  c #E5393A",
"C  c #F33B3B",
"Z  c #EE403F",
"A  c #804444",
"S  c #8F4643",
"D  c #944341",
"F  c #88524F",
"G  c #865956",
"H  c #B64947",
"J  c #A55F5B",
"K  c #B55D5B",
"L  c #867451",
"P  c #8A7A54",
"I  c #80775C",
"U  c #83795E",
"Y  c #897F62",
"T  c #9D706F",
"R  c #D45453",
"E  c #F24040",
"W  c #D56464",
"Q  c #D37E7D",
"!  c #F37979",
"~  c #71807A",
"^  c #89815F",
"/  c #9A8550",
"(  c #9E8B54",
")  c #91835A",
"_  c #9B8C5D",
"`  c #A18752",
"'  c #A18955",
"]  c #A98F52",
"[  c #A59055",
"{  c #AC9354",
"}  c #AE975E",
"|  c #BAA15C",
" . c #A09261",
".. c #B29E60",
"X. c #B6A161",
"o. c #BBA561",
"O. c #BEAD6A",
"+. c #B5A87D",
"@. c #C8B76F",
"#. c #D2B26C",
"$. c #CCB37E",
"%. c #CCBA78",
"&. c #DCBD79",
"*. c #E0C06E",
"=. c #E5C779",
"-. c #E38987",
";. c #C9B083",
":. c #D2BB92",
">. c #EBA2A3",
",. c #E3CC83",
"<. c #EBCD84",
"1. c #EACE8E",
"2. c #EED18F",
"3. c #F3D588",
"4. c #E2CF97",
"5. c #E4D29A",
"6. c #EBDC9B",
"7. c #F0D791",
"8. c #F4DC94",
"9. c #F3DD9F",
"0. c #E4D3A6",
"q. c #E4D3B3",
"w. c #EFE0A2",
"e. c #EEE0AF",
"r. c #F6EBAF",
"t. c #F9E5B1",
"y. c #FAE7BA",
"u. c #FAECBB",
"i. c #D0D0CF",
"p. c #D7D6D5",
"a. c #DFDFDE",
"s. c #E0DFDE",
"d. c #F4E9C4",
"f. c #FEF3CA",
"g. c #FFF8CA",
"h. c #F2EBD7",
"j. c #FBF5DC",
"k. c #FEFADF",
"l. c #E7EAED",
"z. c #E9E9E9",
"x. c #F7F1E3",
"c. c #FFFBE0",
"v. c #FEFCED",
"b. c #EBEFF3",
"n. c #F4F3F3",
"m. c #FDFBF2",
"M. c #F2F4F9",
"N. c #FEFEFE",
/* pixels */
"N.N.N.N.N.N.N.N.N.N.N.N.N.N.N.N.N.N.N.N.N.N.N.N.N.N.N.N.N.N.N.N.",
"N.N.N.N.N.N.N.N.N.N.N.N.m.N.N.N.N.N.N.N.N.N.N.N.N.N.N.N.N.N.N.N.",
"N.N.N.N.N.N.N.N.N.N.N.N.N.N.N.m.v.N.N.N.N.N.N.N.N.N.N.N.N.N.N.N.",
"N.N.N.N.N.N.N.N.N.N.N.v.y.2.&.#.#.&.1.y.v.N.N.N.N.N.N.N.N.N.N.N.",
"N.N.N.N.N.N.N.N.N.m.t.*.} Y 8 5 3 5 U ' #.t.N.N.N.N.N.N.N.N.N.N.",
"N.N.N.N.N.N.N.N.m.3.X.9 0 w r 7 r r w w 3 ` <.v.N.N.N.N.N.N.N.N.",
"N.N.N.N.N.N.N.m.9. .0 r 8 7 7 7 7 7 7 7 r 0 P =.m.N.N.N.N.N.N.N.",
"N.N.N.N.N.N.N.7._ 0 7 7 7 7 7 7 7 7 7 7 7 8 0 P 7.N.N.N.N.N.N.N.",
"N.N.N.N.N.N.f.| , t 7 7 r r r r 7 7 7 7 7 r y , { f.N.N.N.N.N.N.",
"N.N.N.N.N.N.,.; r 7 7 r 2 1 7 2 7 r 4 , r 8 5 r = ,.N.N.N.N.N.N.",
"N.N.N.N.N.k.X., 7 7 r < m h e x * > K W 1 q 7 t , ..c.N.N.N.N.N.",
"N.N.N.N.N.u.Y r 7 7 e k m 2 e j T >.! R B c 4 t 0 ) u.N.N.N.N.N.",
"N.N.N.N.N.w.; w 7 y $ n g # y f E Q 7 & D F r 7 r ; w.N.N.N.N.N.",
"N.N.N.N.N.6.6 r 8 y O n a 2 r f C J q u e y 7 7 r ; 6.N.N.N.N.N.",
"N.N.N.N.N.6.6 r 5 y $ i A y y d V H : , @ < 7 r r 6 6.N.N.N.N.N.",
"N.N.N.N.N.r.U w 7 r d X d y 3   v N R b M . , 8 w ^ r.N.N.N.N.N.",
"N.N.N.N.N.f._ , t # o ~   s s O q G -.Z S , 7 7 0  .g.N.N.N.N.N.",
"N.N.N.N.N.v.O.> 7 > r 7 y * < r 8 y > < r r 7 r 3 @.v.N.N.N.N.N.",
"N.N.N.N.N.N.6.; r 7 7 r 7 r r 7 7 7 7 y 7 7 t 0 ^ 6.N.N.N.N.N.N.",
"N.N.N.N.N.N.k.o.4 r 7 7 7 7 7 7 7 7 7 7 7 r 7 y %.j.N.N.N.N.N.N.",
"N.N.N.N.N.N.N.e.' w 7 7 r 7 r 7 7 7 7 r 8 r 3 +.d.N.N.N.N.N.N.N.",
"N.N.N.N.N.N.N.N.4./ w r 7 t 8 7 7 7 r 8 w 7 [ 5.N.N.N.N.N.N.N.N.",
"N.N.N.N.N.N.N.N.N.0.] ; w r r r r r r w I { 0.N.N.N.N.N.N.N.N.N.",
"N.N.N.N.N.N.N.N.N.N.h.$.' L - = = - L ` $.h.N.N.N.N.N.N.N.N.N.N.",
"N.N.N.N.N.N.N.N.N.N.N.N.x.q.:.;.;.:.q.x.N.N.N.N.N.N.N.N.N.N.N.N.",
"N.N.N.N.N.N.N.N.N.N.M.n.M.M.b.l.l.b.M.M.n.m.N.N.N.N.N.N.N.N.N.N.",
"N.N.N.N.N.N.N.N.N.N.m.b.z.s.p.i.i.p.s.z.b.m.N.N.N.N.N.N.N.N.N.N.",
"N.N.N.N.N.N.N.N.N.N.N.N.N.N.N.N.N.N.N.N.N.N.N.N.N.N.N.N.N.N.N.N.",
"N.N.N.N.N.N.N.N.N.N.N.N.N.N.N.N.N.N.N.N.N.N.N.N.N.N.N.N.N.N.N.N.",
"N.N.N.N.N.N.N.N.N.N.N.N.N.N.N.N.N.N.N.N.N.N.N.N.N.N.N.N.N.N.N.N.",
"N.N.N.N.N.N.N.N.N.N.N.N.N.N.N.N.N.N.N.N.N.N.N.N.N.N.N.N.N.N.N.N.",
"N.N.N.N.N.N.N.N.N.N.N.N.N.N.N.N.N.N.N.N.N.N.N.N.N.N.N.N.N.N.N.N."
};
