/* XPM */
static char *_41c212598eb494fbd82435ab0f0bedf[] = {
/* columns rows colors chars-per-pixel */
"64 64 256 2 ",
"   c #7B1016",
".  c #583539",
"X  c #7C2A2D",
"o  c #7B2327",
"O  c #7E2F32",
"+  c #6D3538",
"@  c #733B3C",
"#  c #7A3636",
"$  c #5C5452",
"%  c #585C59",
"&  c #5F4849",
"*  c #6A4D4B",
"=  c #684948",
"-  c #744D4E",
";  c #7B4F4E",
":  c #61524E",
">  c #764F50",
",  c #635454",
"<  c #675D5B",
"1  c #6A5D5B",
"2  c #685754",
"3  c #745351",
"4  c #5F615D",
"5  c #64615E",
"6  c #6C635E",
"7  c #6D6454",
"8  c #7A6F5B",
"9  c #736A59",
"0  c #7C725B",
"q  c #7D7154",
"w  c #76694E",
"e  c #5D6C68",
"r  c #646561",
"t  c #6B6562",
"y  c #646A66",
"u  c #6C6A65",
"i  c #666E69",
"p  c #6D6D6C",
"a  c #716F6B",
"s  c #726B63",
"d  c #6B726E",
"f  c #66716C",
"g  c #75746E",
"h  c #7C796D",
"j  c #777266",
"k  c #6D6F71",
"l  c #6F7371",
"z  c #6D7A74",
"x  c #647A74",
"c  c #747471",
"v  c #787671",
"b  c #747A74",
"n  c #797873",
"m  c #757E78",
"M  c #9B0005",
"N  c #99030A",
"B  c #8C0C12",
"V  c #990D14",
"C  c #8B171C",
"Z  c #960E10",
"A  c #AB0002",
"S  c #A2070E",
"D  c #A7090F",
"F  c #AA080F",
"G  c #BC060C",
"H  c #AB0E15",
"J  c #A40B16",
"K  c #B90D15",
"L  c #AB1219",
"P  c #A3161B",
"I  c #A3201F",
"U  c #891C23",
"Y  c #8F2D2C",
"T  c #982628",
"R  c #9F312F",
"E  c #883937",
"W  c #913737",
"Q  c #BA2B29",
"!  c #A33737",
"~  c #B83534",
"^  c #AF2728",
"/  c #D90C0A",
"(  c #CC0D13",
")  c #D60E15",
"_  c #C51016",
"`  c #C81218",
"'  c #D61419",
"]  c #CB090F",
"[  c #E61817",
"{  c #DF201F",
"}  c #CE2928",
"|  c #C13938",
" . c #D73534",
".. c #DA2827",
"X. c #F62928",
"o. c #FB302F",
"O. c #E22625",
"+. c #A67C33",
"@. c #A87D33",
"#. c #F8403F",
"$. c #805654",
"%. c #975251",
"&. c #9B4645",
"*. c #B25757",
"=. c #907B4C",
"-. c #827454",
";. c #8A7B55",
":. c #907E5A",
">. c #857C64",
",. c #827B69",
"<. c #887B64",
"1. c #807F79",
"2. c #936766",
"3. c #C84848",
"4. c #C75555",
"5. c #DB5150",
"6. c #D04949",
"7. c #E34948",
"8. c #E84040",
"9. c #F84B4A",
"0. c #E1504E",
"q. c #F95251",
"w. c #E35453",
"e. c #D27777",
"r. c #EF6665",
"t. c #FD6B6C",
"y. c #F76665",
"u. c #F97776",
"i. c #77807A",
"p. c #AD8337",
"a. c #AD8338",
"s. c #A6823E",
"d. c #B48D3E",
"f. c #9B804E",
"g. c #8D825C",
"h. c #9E8954",
"j. c #97865A",
"k. c #9F915B",
"l. c #A68140",
"z. c #B28943",
"x. c #BA9546",
"c. c #BA9548",
"v. c #A28D5A",
"b. c #A78C56",
"n. c #A8945A",
"m. c #BC9F56",
"M. c #B89958",
"N. c #BCA45C",
"B. c #8D8568",
"V. c #8C8464",
"C. c #938B6A",
"Z. c #989071",
"A. c #9A9066",
"S. c #AD9A66",
"D. c #B4A165",
"F. c #BAA766",
"G. c #C39F48",
"H. c #CAA54B",
"J. c #C3A35C",
"K. c #C9A757",
"L. c #D3AC5D",
"P. c #D4B45C",
"I. c #DCB35A",
"U. c #D6BB5F",
"Y. c #E8BE5D",
"T. c #E3B75B",
"R. c #CDB562",
"E. c #DBBD61",
"W. c #D6BA64",
"Q. c #C7AE7F",
"!. c #C7AF67",
"~. c #EBC15F",
"^. c #DBC264",
"/. c #EDC362",
"(. c #EBCB67",
"). c #E2CB6A",
"_. c #E8C669",
"`. c #F0C666",
"'. c #F1C964",
"]. c #F2CD6B",
"[. c #E8D26F",
"{. c #ECC672",
"}. c #EFCA75",
"|. c #E3C97C",
" X c #EECB7C",
".X c #E3CB76",
"XX c #EBD575",
"oX c #EFD874",
"OX c #F2D675",
"+X c #F5E27A",
"@X c #BA8888",
"#X c #AEAEAE",
"$X c #BCBCBC",
"%X c #B2B2B2",
"&X c #E78F8F",
"*X c #E5908F",
"=X c #FE9F9E",
"-X c #FD9494",
";X c #CCB688",
":X c #C7B78B",
">X c #D2BD81",
",X c #FF9EA0",
"<X c #FEAEAC",
"1X c #F2B0B1",
"2X c #D6C285",
"3X c #D5C392",
"4X c #DFD09C",
"5X c #ECCC83",
"6X c #EED38E",
"7X c #EDD086",
"8X c #F4DA86",
"9X c #ECD293",
"0X c #E3D295",
"qX c #F3DC9D",
"wX c #F5E184",
"eX c #F9E58A",
"rX c #FEEE97",
"tX c #FBE898",
"yX c #DCCFB6",
"uX c #D4CCB1",
"iX c #DFD3BD",
"pX c #EADAA6",
"aX c #E0D5B7",
"sX c #E9DFBA",
"dX c #EFE4A8",
"fX c #F6EBAC",
"gX c #FCF0AE",
"hX c #EDE1B9",
"jX c #F3E6BB",
"kX c #F6E8B5",
"lX c gray78",
"zX c gray81",
"xX c #D5D4D4",
"cX c #DDDDDD",
"vX c #D8D7D7",
"bX c #E5DECE",
"nX c #E0DFDF",
"mX c #F2E8CB",
"MX c #F2E7C7",
"NX c #FCF5CB",
"BX c #F6F0CC",
"VX c #ECE6D9",
"CX c #FBF5D3",
"ZX c #F6F2DD",
"AX c #FAF6DA",
"SX c #E5E5E5",
"DX c #EBEBEB",
"FX c #EFECE3",
"GX c #F3EFE5",
"HX c #F7F4E7",
"JX c #F8F6EC",
"KX c #F9F8EA",
"LX c #F5F3E9",
"PX c #F4F4F4",
"IX c #FAFAF5",
"UX c #FEFEFE",
/* pixels */
"UXUXUXUXUXUXUXUXUXUXUXUXUXUXUXUXUXUXUXUXUXUXUXUXUXUXUXUXUXUXUXUXUXUXUXUXUXUXUXUXUXUXUXUXUXUXUXUXUXUXUXUXUXUXUXUXUXUXUXUXUXUXUXUX",
"UXUXUXUXUXUXUXUXUXUXUXUXUXUXUXUXUXUXUXUXUXUXUXUXUXUXUXUXUXUXUXUXUXUXUXUXUXUXUXUXUXUXUXUXUXUXUXUXUXUXUXUXUXUXUXUXUXUXUXUXUXUXUXUX",
"UXIXUXUXIXUXUXUXUXUXUXUXUXUXUXUXUXUXUXUXUXUXUXUXUXUXUXUXUXUXUXUXUXUXUXUXUXUXUXUXUXUXUXUXUXUXUXUXUXUXUXUXUXUXUXUXUXUXUXUXUXUXUXUX",
"UXIXIXUXUXUXUXUXUXUXUXUXUXUXUXUXUXUXUXUXUXUXUXUXUXUXUXUXUXUXUXUXUXUXUXUXUXUXUXUXUXUXUXUXUXUXUXUXUXUXUXUXUXUXUXUXUXUXUXUXUXUXUXUX",
"UXIXUXIXUXUXUXUXUXUXUXUXUXUXUXUXUXUXUXUXUXUXUXUXUXUXUXUXUXUXUXUXUXUXUXUXUXUXUXUXUXUXUXUXUXUXUXUXUXUXUXUXUXUXUXUXUXUXUXUXUXUXUXUX",
"UXUXUXUXUXUXUXUXUXUXUXUXUXUXUXUXUXUXUXUXUXUXUXUXUXUXUXUXUXIXIXJXLXIXIXUXUXUXUXUXUXUXUXUXUXUXUXUXUXUXUXUXUXUXUXUXUXUXUXUXUXUXUXUX",
"UXUXUXUXUXUXIXUXIXUXUXUXUXUXUXUXUXUXUXUXUXUXUXUXUXJXmXpX6X5X{.{.{.}.5X9XpXMXLXUXUXUXIXUXUXUXUXUXUXUXUXUXUXUXUXUXUXUXUXUXUXUXUXUX",
"UXUXUXUXUXUXUXUXUXUXUXUXUXUXUXUXUXUXUXUXUXUXIXmX0X{.Y.Y.I.L.J.N.M.J.K.I.T.~.{.9XmXUXUXUXUXUXUXUXUXUXUXUXUXUXUXUXUXUXUXUXUXUXUXUX",
"UXUXUXUXUXUXUXUXUXUXIXUXUXUXUXIXUXUXUXUXUXmX5X/./.L.S.B.h a a k k a a a >.j.M.I.`.7XmXUXUXUXUXUXUXUXUXUXUXUXUXUXUXUXUXUXUXUXUXUX",
"UXUXUXUXUXUXUXUXIXUXUXUXUXUXUXUXUXUXUXHX9X/./.!.C.g a l g g g v v v g g c k p 0 b.L.`.9XHXUXUXUXUXUXUXUXUXUXUXUXUXUXUXUXUXUXUXUX",
"UXUXUXUXUXUXUXUXUXUXUXUXUXUXUXUXIXUXmX{./.^.C.a k c g g g g g g g g v g g g c g p 9 b.~.}.mXUXUXUXUXUXUXUXUXUXUXUXUXUXUXUXUXUXUX",
"UXUXIXIXUXUXUXUXUXUXUXUXUXUXUXUXUXmX_.(.D.g k c g g g g g g g g g g g g g g g g v c u -.I.].hXUXUXUXUXUXUXUXUXUXUXUXUXUXUXUXUXUX",
"UXUXUXUXUXUXUXUXUXUXUXUXUXUXUXUXLXqX~.A.p g v g g g g c g g c g g g g c v g g g g g v a 9 K.].hXUXUXUXUXUXUXUXUXUXUXUXUXUXUXUXUX",
"UXUXUXUXUXUXUXUXUXUXUXUXUXUXUXMXqX.XV.k g g g g g g g g g g v g g g g g g g g g g g g g c 7 J.].MXUXIXUXUXUXUXUXUXUXUXUXUXUXUXUX",
"UXUXUXUXUXUXUXUXUXUXUXUXUXUXZX}.~.V.l g g g g g g g g g g c g g g v g g g c g g g g g g a b 7 K.OXGXUXUXUXUXUXUXUXUXUXUXUXUXUXUX",
"UXUXUXUXUXUXUXUXUXUXUXUXUXIX6X(.j.l g g c g g c g g c g g g g g g c g g g g c v g g g c c g c w E.8XIXUXUXUXUXUXIXUXUXUXUXUXUXUX",
"UXUXUXUXUXUXUXUXUXUXUXUXUXhX].n.a g g g g b g g g g c g g g g g g g g g g g g g g g g g g g g p =.].jXUXUXUXUXUXUXUXUXUXUXUXUXUX",
"UXUXUXUXUXUXUXUXUXUXUXUXJX8XP.j c g g g g g g g g c g g g g g g g g g g g g g g g g g g g g g b 9 m.8XJXUXUXUXUXUXUXUXUXUXUXUXUX",
"UXUXUXUXUXUXUXUXUXUXIXUXjX(.j.l g g g g g g g g c n n n c g g b g g g g g g v g g g g g g g g g c -.(.jXUXUXUXUXUXUXUXUXUXUXUXUX",
"UXUXUXUXUXUXUXUXUXUXUXUXeXK.s c g g g g g g g g t 1 t 1 a g a 1 a g g g n f y z g g g g g g g g g s m.eXIXUXUXUXUXUXUXUXUXUXUXUX",
"UXUXUXUXUXUXUXUXUXUXUXCXOXj.a g g g g g g g v y P ` ` U i b > J t n v l 5 %.4.3 i b g g g g g g g l =.OXZXUXUXUXUXUXUXUXUXUXUXUX",
"UXUXUXUXUXUXUXUXUXUXUXkXE.0 c g g g g g g g b @ ) ' K 1 n c > K u c r $.4.y.t.t.*.2 d v g g g g g g 8 U.kXUXUXUXUXUXUXUXUXUXUXUX",
"UXUXUXUXUXUXUXUXUXUXUXtXm.s b g g g g g g n r L ' ( @ z g z > H 4 s @X-Xu.r.t.r.3.Q E r b g g g g g u M.tXIXUXUXUXUXUXUXUXUXUXUX",
"UXUXUXUXUXUXUXUXUXUXHX+Xh.p g g c g g g g z # ( ) T d v g b > F 2.1X1X=X=Xe.&.Q |  .X.P , b a g g v l h.wXJXUXUXUXUXUXUXUXUXUXUX",
"UXUXUXUXUXUXUXUXUXUXAXoX;.c g g g v g g n 5 L ) L % a a g b > F  .u.1X&X2.t y = ! } T 3 a g g g g g c ;.oXAXUXUXUXUXUXUXUXUXUXUX",
"UXUXUXUXUXUXUXUXUXUXCX[.q g g g c g g g z O ] _ L P o p a m > D } o.7.6 u g v c 6 * f b g g g c g g c 0 [.CXUXUXUXUXUXUXUXUXUXUX",
"UXUXUXUXUXUXUXUXUXUXNX).0 l g g g g a v , S ` ` ( D < c a b - S  .q.0.6 n a g g v n g g g g g g g g c 0 ).NXUXUXUXUXUXUXUXUXUXUX",
"UXUXUXUXUXUXUXUXUXUXNX).0 g g g g c g c t & L ` K : m a g b > S 6.y.w.6 c g g g g g j g g g g g g g c 0 ).NXUXUXUXUXUXUXUXUXUXUX",
"UXUXUXUXUXUXUXUXUXUXNX).0 b g g v g g g m = G ( P r v g g b - S ~ q.5.r m g g g z y z g g g g g g g c 0 [.NXUXUXUXUXUXUXUXUXUXUX",
"UXUXUXUXUXUXUXUXUXUXCX[.0 c g g g g g g d C G   V t c g g z - N 3.7...R 1 z b i E Y : l b g g g g g z -.oXNXUXUXUXUXUXUXUXUXUXUX",
"UXUXUXUXUXUXUXUXUXUXAX+X-.l g g g g g n , A Y $ N 1 n g j b @ N ^ [ / o...W * I [ ~ ! # 5 n g g g g c g.+XAXUXUXUXUXUXUXUXUXUXUX",
"UXUXUXUXUXUXUXUXUXUXHXeXj.p g g g g g z X B i y N X x b m e V o : P / X.#.u.8.{ { Q W = u g g g g g p k.eXJXUXUXUXUXUXUXUXUXUXUX",
"UXUXUXUXUXUXUXUXUXUXIXrXn.u c g g g b 6   1 n z + A o * = C M 2 i.f @ 3.=X<Xq.o.O.E 4 c c g g g g g a N.rXIXUXUXUXUXUXUXUXUXUXUX",
"UXUXUXUXUXUXUXUXUXUXUXgXR.s c g g g b . & m g g d + N M M B : b g g z y 2.*X9.^ * d b g g g g g g c j ^.fXUXUXUXUXUXUXUXUXUXUXUX",
"UXUXUXUXUXUXUXUXUXUXUXBX[.q l c g g g $ g g g g g z y 1 1 p b g g g a v i 6 ; r b g g g g g g g g l g.oXBXUXUXUXUXUXUXUXUXUXUXUX",
"UXUXUXUXUXUXUXUXUXUXUXJXwXn.u g a g g g g g g g g g v b b g g a g g g g g c c h g g g g g g g g g d N.wXJXUXUXUXUXUXUXUXUXUXUXUX",
"UXUXUXUXUXUXUXUXUXUXUXIXfXW.9 c g g g g g g g g g g g g g g g g g g g g g g g g g g g c g g g g c V.).dXIXUXUXUXUXUXUXUXUXUXUXUX",
"UXUXUXUXUXUXUXUXUXUXUXUXZXoXv.p g g g g g g g g g g g g v g g g g g g g g g g g v g g g c g g g u F.XXZXUXUXUXUXUXUXUXUXUXUXUXUX",
"UXUXUXUXUXUXUXUXUXUXUXUXUXpXE.0 c g g g g g g g g g g g g g g g n g g g g g g g g g g g g g g p Z.).pXUXUXUXUXUXUXUXUXUXUXUXUXUX",
"UXUXUXUXUXUXUXUXUXUXUXUXUXHX.XN.u g g g g c g g c g g g g g c g g g g g g g g g g c g g g g l i.4X.XHXUXUXUXUXUXUXUXUXUXUXUXUXUX",
"UXUXUXUXUXUXUXUXUXUXUXUXUXUXsX^.n.p c g g g g g g g g g g c g v g g b g c g g c g g g g g g a uX9XsXUXUXUXUXUXUXUXUXUXUXUXUXUXUX",
"UXUXUXUXUXUXUXUXUXUXUXUXUXUXUX4XP.j.p g g g g g g c v g g g g g g g g g g g g g g g g g g p :X|.pXUXUXUXUXUXUXUXUXUXUXUXUXUXUXUX",
"UXUXUXUXUXUXUXUXUXUXUXUXUXUXUXIX2XP.k.p g g g g g g c g g g g g b g g g g g c g g c g g g D.P.2XIXUXUXUXUXUXUXUXUXUXUXUXUXUXUXUX",
"UXUXUXUXUXUXUXUXUXUXUXUXUXUXUXUXIXQ.H.n.g c g g g g g c g v g c g g g g g g g g g g a n N.P.Q.IXUXUXUXUXUXUXUXUXUXUXUXUXUXUXUXUX",
"UXUXUXUXUXUXUXUXUXUXUXUXUXUXUXUXUXIX3XG.M.>.l a g g g g g g c c g g g g g g g g a c V.J.G.3XIXUXUXUXUXUXUXUXUXUXUXUXUXUXUXUXUXUX",
"UXUXUXUXUXUXUXUXUXUXUXUXUXUXUXUXUXUXUXaXm.x.v.h k c g g g g g a v g g g g g l l ,.v.x.J.aXUXIXUXUXUXUXUXUXUXUXUXUXUXUXUXUXUXUXUX",
"UXUXUXUXUXUXUXUXUXUXUXUXUXUXUXUXUXUXUXUXGX;Xc.z.v.<.v c c c a c g a c l c g V.h.z.c.;XGXUXUXUXUXUXUXUXUXUXUXUXUXUXUXUXUXUXUXUXUX",
"UXUXUXUXUXUXUXUXUXUXUXUXUXUXUXUXUXUXUXUXUXUXVX;Xc.a.l.=.:.<.,.,.,.,.>.:.f.s.p.c.;XVXUXUXIXUXUXUXUXUXUXUXUXUXUXUXUXUXUXUXUXUXUXUX",
"UXUXUXUXUXUXUXUXUXUXUXUXUXUXUXUXUXUXUXUXIXUXUXUXGXyX;XM.z.a.+.+.+.+.a.z.M.;XyXLXUXUXUXUXUXUXUXUXUXUXUXUXUXUXUXUXUXUXUXUXUXUXUXUX",
"UXUXUXUXUXUXUXUXUXUXUXUXUXUXUXUXUXUXUXUXUXUXUXUXUXUXUXPXFXbXiXyXyXiXbXFXPXUXUXUXUXUXUXUXUXUXUXUXUXUXUXUXUXUXUXUXUXUXUXUXUXUXUXUX",
"UXUXUXUXUXUXUXUXUXUXUXUXUXUXUXUXUXUXUXUXUXUXUXIXUXUXUXUXUXUXUXUXUXUXUXUXUXUXIXUXUXUXUXUXUXUXUXUXUXUXUXUXUXUXUXUXUXUXUXUXUXUXUXUX",
"UXUXUXUXUXUXUXUXUXUXUXUXUXUXUXUXUXUXUXIXUXPXPXPXDXDXSXcXcXvXxXzXzXxXvXvXcXSXDXDXDXPXPXPXUXPXUXUXUXUXUXUXUXUXUXUXUXUXUXUXUXUXUXUX",
"UXUXUXUXUXUXUXUXUXUXUXUXUXUXUXUXUXIXIXIXPXPXDXSXcXvXzXlX$X$X%X#X#X%X$X$XlXzXxXnXSXDXDXPXUXUXUXUXUXUXUXUXUXUXUXUXUXUXUXUXUXUXUXUX",
"UXUXUXUXUXUXUXUXUXUXUXUXUXUXUXUXUXUXUXUXIXUXUXIXUXUXIXPXPXPXPXPXPXPXPXIXIXIXIXIXUXUXUXUXUXUXUXUXUXUXUXUXUXUXUXUXUXUXUXUXUXUXUXUX",
"UXUXUXUXUXUXUXUXUXUXUXUXUXUXUXUXUXUXUXUXUXUXUXUXUXUXUXUXUXUXUXUXUXUXUXUXUXUXUXUXUXUXUXUXUXUXUXUXUXUXUXUXUXUXUXUXUXUXUXUXUXUXUXUX",
"UXUXUXUXUXUXUXUXUXUXUXUXUXUXUXUXUXUXUXUXUXUXUXUXUXUXUXUXUXUXUXUXUXUXUXUXUXUXUXUXUXUXUXUXUXUXUXUXUXUXUXUXUXUXUXUXUXUXUXUXUXUXUXUX",
"UXUXUXUXUXUXUXUXUXUXUXUXUXUXUXUXUXUXUXUXUXUXUXUXUXUXUXUXUXUXUXUXUXUXUXUXUXUXUXUXUXUXUXUXUXUXUXUXUXUXUXUXUXUXUXUXUXUXUXUXUXUXUXUX",
"UXUXUXUXUXUXUXUXUXUXUXUXUXUXUXUXUXUXUXUXUXUXUXUXUXUXUXUXUXUXUXUXUXUXUXUXUXUXUXUXUXUXUXUXUXUXUXUXUXUXUXUXUXUXUXUXUXUXUXUXUXUXUXUX",
"UXUXUXUXUXUXUXUXUXUXUXUXUXUXUXUXUXUXUXUXUXUXUXUXUXUXUXUXUXUXUXUXUXUXUXUXUXUXUXUXUXUXUXUXUXUXUXUXUXUXUXUXUXUXUXUXUXUXUXUXUXUXUXUX",
"UXUXUXUXUXUXUXUXUXUXUXUXUXUXUXUXUXUXUXUXUXUXUXUXUXUXUXUXUXUXUXUXUXUXUXUXUXUXUXUXUXUXUXUXUXUXUXUXUXUXUXUXUXUXUXUXUXUXUXUXUXUXUXUX",
"UXUXUXUXUXUXUXUXUXUXUXUXUXUXUXUXUXUXUXUXUXUXUXUXUXUXUXUXUXUXUXUXUXUXUXUXUXUXUXUXUXUXUXUXUXUXUXUXUXUXUXUXUXUXUXUXUXUXUXUXUXUXUXUX",
"UXUXUXUXUXUXUXUXUXUXUXUXUXUXUXUXUXUXUXUXUXUXUXUXUXUXUXUXUXUXUXUXUXUXUXUXUXUXUXUXUXUXUXUXUXUXUXUXUXUXUXUXUXUXUXUXUXUXUXUXUXUXUXUX",
"UXUXUXUXUXUXUXUXUXUXUXUXUXUXUXUXUXUXUXUXUXUXUXUXUXUXUXUXUXUXUXUXUXUXUXUXUXUXUXUXUXUXUXUXUXUXUXUXUXUXUXUXUXUXUXUXUXUXUXUXUXUXUXUX",
"UXUXUXUXUXUXUXUXUXUXUXUXUXUXUXUXUXUXUXUXUXUXUXUXUXUXUXUXUXUXUXUXUXUXUXUXUXUXUXUXUXUXUXUXUXUXUXUXUXUXUXUXUXUXUXUXUXUXUXUXUXUXUXUX"
};
