/* XPM */
static char *_98fe5c706144fbfc3dbade038e4f50c[] = {
/* columns rows colors chars-per-pixel */
"16 16 127 2 ",
"   c #FDFDFD",
".  c #FEFEFE",
"X  c #FEFFFF",
"o  c #FEFEFD",
"O  c #FDFEFE",
"+  c #FFFEFE",
"@  c #FDFDFE",
"#  c #FDFEFF",
"$  c #FFFFF9",
"%  c #F8EDD1",
"&  c #E6D7B4",
"*  c #E5D6B4",
"=  c #F6EBD0",
"-  c #FFFEF8",
";  c #FEFEFF",
":  c gray100",
">  c #FDFDFC",
",  c #FCF4DC",
"<  c #C2B07D",
"1  c #877D62",
"2  c #767062",
"3  c #757062",
"4  c #837860",
"5  c #B7A479",
"6  c #F9F0D8",
"7  c #FEF7E0",
"8  c #A99B71",
"9  c #6A6A67",
"0  c #6F7474",
"q  c #747572",
"w  c #767572",
"e  c #727373",
"r  c #696867",
"t  c #9D8D64",
"y  c #C5B586",
"u  c #6A6864",
"i  c #757874",
"p  c #7A6B66",
"a  c #75706B",
"s  c #6D706B",
"d  c #74726C",
"f  c #747C77",
"g  c #696966",
"h  c #BFB084",
"j  c #FDF7E1",
"k  c #8D8366",
"l  c #6C7675",
"z  c #865856",
"x  c #9C3639",
"c  c #755957",
"v  c #A26F6E",
"b  c #CC6665",
"n  c #974F4B",
"m  c #6C6F6F",
"M  c #8C8367",
"N  c #FEFDFC",
"B  c #F0E9CC",
"V  c #7D7562",
"C  c #6B7B78",
"Z  c #A2292B",
"A  c #8B4646",
"S  c #835A58",
"D  c #D55454",
"F  c #737772",
"G  c #80605B",
"H  c #737270",
"J  c #7C7763",
"K  c #F1EACC",
"L  c #F2ECCF",
"P  c #7E7964",
"I  c #707271",
"U  c #882E30",
"Y  c #7C5150",
"T  c #7D4E4D",
"R  c #BF2F2E",
"E  c #A95653",
"W  c #894F4B",
"Q  c #6E7271",
"!  c #807A65",
"~  c #F4EED0",
"^  c #FFFBE7",
"/  c #908A6C",
"(  c #6C6667",
")  c #716A65",
"_  c #79514F",
"`  c #75504F",
"'  c #7C6D69",
"]  c #B25F5D",
"[  c #84605A",
"{  c #6B6F70",
"}  c #958D6B",
"|  c #FFFDE8",
" . c #C6BA91",
".. c #6A6A64",
"X. c #777975",
"o. c #757872",
"O. c #737670",
"+. c #6B7770",
"@. c #737976",
"#. c #6F6D68",
"$. c #CEC399",
"%. c #FDF9E8",
"&. c #A4966E",
"*. c #6A6863",
"=. c #717170",
"-. c #747371",
";. c #747471",
":. c #737271",
">. c #6B6861",
",. c #ACA07A",
"<. c #FFFDEF",
"1. c #F9F4E6",
"2. c #BBAB89",
"3. c #867B64",
"4. c #797262",
"5. c #867B63",
"6. c #BCAD88",
"7. c #FAF5E6",
"8. c #FFFEFC",
"9. c #EBE4D6",
"0. c #D1C6B2",
"q. c #D1C6B1",
"w. c #EBE4D5",
"e. c #F9F9F9",
"r. c #F5F6FA",
"t. c #F0F2F5",
"y. c #F4F6F9",
/* pixels */
"  . . X o O X + + X @ o X . . . ",
". . . o # $ % & * = - ; o : . . ",
". . > X , < 1 2 3 4 5 6 : o . . ",
". o X 7 8 9 0 q w e r t , : o . ",
". @ : y u i p a s d f g h : @ . ",
"o : j k l z x c v b n m M j : o ",
"N : B V C Z A S D F G H J K : N ",
"N : L P I U Y T R E W Q ! ~ : N ",
"o X ^ / ( ) _ ` ' ] [ { } | X o ",
".   :  ...X.o.o.O.+.@.#.$.: @ . ",
". o : %.&.*.=.-.;.:.>.,.<.X . . ",
". . o : 1.2.3.4.4.5.6.7.: o ; . ",
". . ; o . 8.9.0.q.w.8.; . : . . ",
". . . X > e.r.t.t.y.e.> : . : . ",
". . . . . : : : : : : . . . . . ",
". . . . . . . . . . . . . . : . "
};
